<?xml version="1.0" encoding="UTF-8" standalone="no"?>
<svg width="56px" height="116px" viewBox="0 0 56 116" version="1.1" xmlns="http://www.w3.org/2000/svg" xmlns:xlink="http://www.w3.org/1999/xlink">
    <!-- Generator: Sketch 46 (44423) - http://www.bohemiancoding.com/sketch -->
    <title>Combined Shapelogo</title>
    <desc>Created with Sketch.</desc>
    <defs></defs>
    <g id="Page-1" stroke="none" stroke-width="1" fill="none" fill-rule="evenodd">
        <g id="Desktop-HD" transform="translate(-28.000000, -18.000000)" stroke="#4A4A4A" fill="#FFFFFF">
            <path d="M35.3988787,106.379409 C31.4062461,101.64633 29,95.5313822 29,88.854426 C29,85.1499813 29.7406776,81.6185311 31.0820182,78.40009 C32.1583335,75.8175563 33.6214001,73.436561 35.3988787,71.3294434 L35.3988787,35.6850763 C35.3988787,25.830803 43.9093874,19 52.5318765,19 L52.5318765,22.3594113 C45.5890931,22.3594113 38.75829,27.8464498 38.75829,35.6850763 L38.75829,54.7484024 L77.9514222,54.7484024 L70.5639976,65.7607124 C78.2655193,70.5627023 83.3904691,79.110066 83.3904691,88.854426 C83.3904691,92.4729334 82.683758,95.9263796 81.4008303,99.0842701 C82.0667712,101.086035 82.4306373,103.191023 82.4306373,105.363533 C82.4306373,120.368904 70.3367565,133.358627 49.2844455,133.358627 L49.2844455,129.999216 C68.097149,129.999216 79.071226,118.577218 79.071226,105.363533 C79.071226,104.806592 79.0407028,104.253608 78.9810762,103.705588 C74.1269627,111.137979 65.734691,116.049661 56.1952345,116.049661 C49.5596022,116.049661 43.4790436,113.673107 38.75829,109.724731 L38.75829,114.769885 L35.3988787,114.769885 L35.3988787,106.379409 Z M67.6484785,64.1813968 L71.680521,58.1078138 L38.75829,58.1078138 L38.75829,67.9841211 C43.4790436,64.035745 49.5596022,61.6591914 56.1952345,61.6591914 C60.2869273,61.6591914 64.1675667,62.562818 67.6484785,64.1813968 Z M35.3988787,106.379409 C36.4195718,107.589392 37.5439415,108.709066 38.75829,109.724731 L38.75829,67.9841211 C37.5439415,68.9997862 36.4195718,70.1194595 35.3988787,71.3294434 L35.3988787,106.379409 Z M70.5639976,65.7607124 C69.6286414,65.1775067 68.6552799,64.6495464 67.6484785,64.1813968 L53.9876214,84.7591436 C66.3247677,84.7591436 77.8538208,93.3451351 78.9810762,103.705588 C79.928318,102.255216 80.7408252,100.708854 81.4008303,99.0842701 C78.4282762,90.1490109 69.4370217,83.2704231 59.9225814,81.623693 L70.5639976,65.7607124 Z" id="Combined-Shape"></path>
        </g>
    </g>
</svg>