<?xml version="1.0" encoding="UTF-8" standalone="no"?>
<svg width="205px" height="116px" viewBox="0 0 205 116" version="1.1" xmlns="http://www.w3.org/2000/svg" xmlns:xlink="http://www.w3.org/1999/xlink">
    <!-- Generator: Sketch 46 (44423) - http://www.bohemiancoding.com/sketch -->
    <title>Group</title>
    <desc>Created with Sketch.</desc>
    <defs></defs>
    <g id="Page-1" stroke="none" stroke-width="1" fill="none" fill-rule="evenodd">
        <g id="Desktop-HD" transform="translate(-28.000000, -18.000000)">
            <g id="Group" transform="translate(29.000000, 19.000000)">
                <path d="M6,86.972003 C2.24760038,82.3348246 0,76.4298899 0,70 C0,66.3221495 0.735360275,62.8160516 2,60 C3.0189433,57.5013163 4.37170421,55.2017436 6,53.1548921 L6,17 C6,6.8093817 14.5047619,0 23,0 L23,3 C16.1833333,3.34887625 9.35714286,8.81870745 9,17 L9,36 L49,36 L41.3138459,47.1022226 C48.9332339,51.8753122 54,60.3459528 54,70 C54,73.554947 53.3129659,76.9494286 52.0644317,80.0579108 C52.6694291,81.9608575 53,83.9512442 53,86 C53,101.051012 40.9142857,114 20,114 L20,111 C38.6761905,110.651124 49.6428571,99.2649445 50,86 C49.982196,85.4537022 49.935245,84.9110577 49.8605416,84.3731155 C45.080714,91.9594982 36.6289932,97 27,97 C20.0848101,97 13.7768084,94.4003179 9,90.1249586 L9,95 L6,95 L6,86.972003 Z M38.0088201,45.3389327 L42,39 L9,39 L9,49.9492765 C13.7905325,45.5940295 20.0923322,43 27,43 C30.9209619,43 34.6467146,43.8357902 38.0088201,45.3389327 Z M6,86.972003 C6.91425216,88.1018268 7.91783331,89.1563931 9,90.1249586 L9,49.9492765 C7.91968316,50.9314318 6.91622201,52.003154 6,53.1548921 L6,86.972003 Z M41.3138459,47.1022226 C40.2588815,46.4413506 39.1549818,45.8513629 38.0088201,45.3389327 L25,66 C36.9311556,65.5752109 48.4367135,74.1200751 49.8605416,84.3731155 C50.7181949,83.0118768 51.4576287,81.5686715 52.0644317,80.0579108 C49.2026088,71.0563904 40.2002744,64.0114132 31,62 L41.3138459,47.1022226 Z" id="Combined-Shape" stroke="#4A4A4A" fill="#FFFFFF"></path>
                <text id="Sascha-Darius" font-family="Existence-Light, Existence" font-size="14" font-weight="300" letter-spacing="5" fill="#E8E8E8">
                    <tspan x="60.049" y="52">Sascha-Darius</tspan>
                </text>
                <text id="Knießner" stroke="#FFFFFF" stroke-width="3" font-family="Existence-Light, Existence" font-size="25" font-weight="300" letter-spacing="5" fill="#E8E8E8">
                    <tspan x="66.0125" y="81">Knießner</tspan>
                </text>
            </g>
        </g>
    </g>
</svg>